<svg xmlns="http://www.w3.org/2000/svg" viewBox="0 0 32 32">
  <!-- Background -->
  <rect width="32" height="32" rx="8" fill="#085041"/>

  <!-- Steam lines -->
  <path d="M11 11 C11 9.5 12.5 9.5 12.5 8 C12.5 6.5 11 6.5 11 5" stroke="#9FE1CB" stroke-width="1.3" stroke-linecap="round" fill="none"/>
  <path d="M16 11 C16 9.5 17.5 9.5 17.5 8 C17.5 6.5 16 6.5 16 5" stroke="#9FE1CB" stroke-width="1.3" stroke-linecap="round" fill="none"/>
  <path d="M21 11 C21 9.5 22.5 9.5 22.5 8 C22.5 6.5 21 6.5 21 5" stroke="#9FE1CB" stroke-width="1.3" stroke-linecap="round" fill="none"/>

  <!-- Bowl body -->
  <path d="M6 15 Q6 24 16 24 Q26 24 26 15 Z" fill="#1D9E75"/>

  <!-- Bowl rim -->
  <rect x="5" y="13" width="22" height="3" rx="1.5" fill="#E1F5EE"/>

  <!-- Food surface -->
  <ellipse cx="16" cy="14.5" rx="9" ry="1.8" fill="#9FE1CB"/>

  <!-- Chopsticks -->
  <line x1="20" y1="10" x2="27" y2="25" stroke="#EF9F27" stroke-width="1.5" stroke-linecap="round"/>
  <line x1="22" y1="10" x2="28" y2="24" stroke="#EF9F27" stroke-width="1.5" stroke-linecap="round"/>
</svg>
